<?xml version="1.0" encoding="UTF-8" standalone="no"?>
<svg xmlns="http://www.w3.org/2000/svg" version="1.2" baseProfile="tiny" viewBox="0.00 0.00 1504.00 536.00">
<g stroke-width="5.00" fill="none" stroke-linecap="butt">
<path stroke="#fd485c" vector-effect="non-scaling-stroke" d="
  M 402.52 200.56
  C 401.91 200.18 401.50 199.64 401.31 198.95
  C 401.11 198.24 400.87 197.62 400.60 197.11
  C 398.96 194.08 396.80 192.66 396.85 188.63
  C 396.92 183.55 396.97 178.45 396.99 173.33
  C 397.01 166.14 395.99 159.11 396.29 151.99
  C 396.58 145.16 397.33 140.32 398.54 137.48
  C 399.82 134.47 399.49 131.53 397.54 128.66"
/>
<path stroke="#fd485c" vector-effect="non-scaling-stroke" d="
  M 402.38 248.60
  C 396.50 258.15 394.24 268.46 395.59 279.51
  C 395.64 279.88 395.76 280.21 395.96 280.51
  C 397.12 282.30 398.03 283.66 397.09 285.93
  C 395.67 289.40 394.43 292.83 393.38 296.22
  C 392.59 298.76 393.61 301.21 394.21 303.65
  C 394.32 304.09 394.26 304.51 394.03 304.90
  C 393.75 305.38 393.75 305.89 394.04 306.43"
/>
<path stroke="#fd485c" vector-effect="non-scaling-stroke" d="
  M 386.75 405.48
  C 387.70 404.37 388.60 403.52 389.45 402.94
  C 391.85 401.30 392.11 399.45 392.00 396.46
  C 391.43 381.19 393.50 366.12 398.21 351.24"
/>
<path stroke="#f92d63" vector-effect="non-scaling-stroke" d="
  M 316.70 286.96
  C 316.35 286.91 316.06 287.11 315.82 287.56
  C 315.65 287.87 315.61 288.19 315.69 288.53
  C 316.35 291.35 317.02 294.14 317.70 296.90
  C 318.93 301.90 317.43 304.88 315.27 308.96
  C 314.77 309.89 314.81 311.02 315.37 311.91
  C 316.58 313.84 318.26 315.73 317.21 318.21
  C 315.98 321.13 314.68 323.66 315.48 327.00
  C 315.97 329.05 316.04 331.05 315.69 333.00
  C 314.84 337.74 313.65 342.48 312.12 347.22"
/>
<path stroke="#ea3237" vector-effect="non-scaling-stroke" d="
  M 841.57 297.97
  C 840.79 297.70 840.08 298.36 839.44 299.95
  C 835.18 310.48 831.59 321.24 828.67 332.21
  C 828.18 334.02 828.27 335.14 828.92 335.55"
/>
<path stroke="#ea3237" vector-effect="non-scaling-stroke" d="
  M 936.20 347.13
  C 925.73 344.98 915.21 344.31 904.64 345.11
  C 904.57 345.12 903.97 345.13 902.84 345.16
  C 901.19 345.20 900.42 345.72 900.51 346.72"
/>
<path stroke="#ea3237" vector-effect="non-scaling-stroke" d="
  M 1103.37 365.28
  C 1102.40 365.67 1102.01 366.35 1102.20 367.30
  C 1102.27 367.66 1102.49 367.86 1102.85 367.89
  C 1103.16 367.92 1103.35 367.72 1103.40 367.30"
/>
<path stroke="#ea3237" vector-effect="non-scaling-stroke" d="
  M 1211.63 382.78
  C 1209.73 384.22 1208.63 386.37 1208.32 389.24
  C 1208.29 389.44 1208.21 389.56 1208.08 389.61
  C 1207.87 389.68 1207.76 389.82 1207.76 390.04
  C 1207.74 391.03 1207.49 392.02 1207.00 393.00
  C 1206.83 393.35 1206.91 393.63 1207.25 393.82
  L 1207.95 394.22"
/>
<path stroke="#e7173f" vector-effect="non-scaling-stroke" d="
  M 915.05 106.02
  C 916.10 106.26 916.98 106.18 917.69 105.79
  C 918.04 105.60 918.02 105.46 917.63 105.37
  C 916.48 105.11 915.37 105.21 914.29 105.68"
/>
</g>
<path fill="#fd4f59" d="
  M 402.52 200.56
  C 401.91 200.18 401.50 199.64 401.31 198.95
  C 401.11 198.24 400.87 197.62 400.60 197.11
  C 398.96 194.08 396.80 192.66 396.85 188.63
  C 396.92 183.55 396.97 178.45 396.99 173.33
  C 397.01 166.14 395.99 159.11 396.29 151.99
  C 396.58 145.16 397.33 140.32 398.54 137.48
  C 399.82 134.47 399.49 131.53 397.54 128.66
  C 416.60 110.05 435.62 91.69 454.60 73.60
  C 456.51 71.78 458.31 69.20 460.00 65.87
  C 462.03 61.89 464.08 58.06 466.15 54.37
  C 473.01 42.14 485.86 37.29 499.17 40.18
  C 510.26 42.59 518.85 49.21 524.93 60.02
  C 528.60 66.54 528.30 77.92 525.66 84.40
  C 521.97 93.46 516.24 99.70 508.49 103.11
  C 501.88 106.03 494.15 106.24 488.71 111.44
  C 485.42 114.59 482.16 117.84 478.95 121.19
  C 453.53 147.68 428.05 174.13 402.52 200.56
  Z"
/>
<path fill="#f61968" d="
  M 760.48 61.79
  C 758.27 65.19 759.24 72.31 759.99 76.22
  C 761.18 82.50 762.44 89.26 763.76 96.49
  C 764.24 99.10 764.81 102.16 767.55 103.35
  C 771.11 104.90 774.39 105.23 777.38 104.35
  C 778.19 104.11 778.99 104.72 778.97 105.56
  L 778.59 120.21
  C 778.56 121.37 777.55 122.26 776.39 122.14
  C 775.10 122.00 773.80 121.99 772.50 122.11
  C 767.29 122.58 760.64 122.82 752.54 122.81
  C 690.33 122.77 628.58 122.78 567.30 122.85
  C 561.04 122.85 561.29 117.49 561.27 113.00
  C 561.18 94.34 561.17 75.64 561.25 56.91
  C 561.27 52.98 561.39 48.95 561.62 44.84
  C 561.67 44.11 562.26 43.55 562.98 43.54
  C 564.56 43.53 566.15 43.51 567.75 43.50
  C 623.34 43.02 686.43 42.98 757.00 43.39
  C 762.56 43.42 768.30 43.53 774.22 43.70
  C 774.61 43.71 774.92 44.03 774.93 44.43
  L 775.11 58.17
  C 775.13 59.13 774.25 59.85 773.31 59.65
  C 770.09 58.98 766.56 59.83 761.59 61.01
  C 761.12 61.12 760.75 61.38 760.48 61.79
  Z"
/>
<path fill="#f61968" d="
  M 820.81 59.20
  C 820.34 58.86 819.77 58.69 819.19 58.71
  L 798.69 59.55
  C 797.50 59.59 796.52 58.63 796.54 57.44
  L 796.75 43.99
  C 796.76 43.60 796.96 43.41 797.35 43.43
  C 805.92 43.80 814.56 43.88 823.26 43.66
  C 823.89 43.64 824.42 44.12 824.46 44.75
  C 824.73 48.31 824.51 51.79 823.78 55.20
  C 823.11 58.35 823.73 64.83 828.31 64.80
  C 834.72 64.76 841.18 64.76 847.71 64.81
  C 848.45 64.82 849.03 65.42 849.01 66.16
  L 848.64 78.13
  C 848.60 79.37 847.61 80.37 846.37 80.41
  C 839.36 80.63 832.53 80.68 825.88 80.55
  C 824.31 80.52 823.08 79.17 823.20 77.60
  C 823.57 72.73 823.66 68.30 823.45 64.31
  C 823.34 62.09 822.46 60.39 820.81 59.20
  Z"
/>
<path fill="#f61968" d="
  M 887.9998 59.3797
  C 888.00 59.53 887.88 59.65 887.7270 59.6469
  L 861.5084 59.3723
  C 861.36 59.37 861.24 59.25 861.2413 59.0995
  L 861.4002 43.9203
  C 861.40 43.77 861.52 43.65 861.6730 43.6531
  L 887.8916 43.9277
  C 888.04 43.93 888.16 44.05 888.1587 44.2005
  L 887.9998 59.3797
  Z"
/>
<path fill="#f61968" d="
  M 1101.23 58.33
  L 1078.06 59.39
  C 1077.88 59.40 1077.72 59.26 1077.72 59.08
  L 1077.11 44.69
  C 1077.11 44.51 1077.26 44.35 1077.44 44.35
  L 1102.03 44.41
  C 1102.22 44.41 1102.37 44.57 1102.36 44.76
  L 1101.55 58.02
  C 1101.54 58.19 1101.40 58.33 1101.23 58.33
  Z"
/>
<path fill="#f61968" d="
  M 1176.58 59.06
  L 1156.31 58.66
  C 1155.81 58.65 1155.41 58.25 1155.40 57.75
  L 1155.09 45.21
  C 1155.08 44.68 1155.51 44.25 1156.04 44.26
  L 1177.49 44.62
  C 1178.02 44.63 1178.44 45.09 1178.40 45.62
  L 1177.53 58.20
  C 1177.50 58.69 1177.08 59.07 1176.58 59.06
  Z"
/>
<path fill="#f61968" d="
  M 1217.33 44.54
  L 1240.12 44.22
  C 1240.29 44.22 1240.44 44.37 1240.43 44.54
  L 1240.02 57.62
  C 1240.01 57.79 1239.88 57.92 1239.71 57.92
  L 1218.11 57.92
  C 1217.95 57.92 1217.81 57.79 1217.80 57.63
  L 1217.03 44.86
  C 1217.02 44.69 1217.16 44.54 1217.33 44.54
  Z"
/>
<path fill="#f61968" d="
  M 939.91 59.00
  C 938.68 58.98 937.69 57.97 937.71 56.74
  L 937.84 45.82
  C 937.85 44.97 938.28 44.28 938.80 44.28
  L 962.86 44.58
  C 963.38 44.58 963.79 45.28 963.78 46.14
  L 963.65 57.06
  C 963.63 58.29 962.62 59.28 961.39 59.26
  L 939.91 59.00
  Z"
/>
<path fill="#f61968" d="
  M 1007.36 45.16
  C 1007.36 44.85 1007.60 44.60 1007.90 44.59
  L 1027.80 44.07
  C 1030.17 44.01 1032.11 45.08 1032.15 46.47
  L 1032.41 56.34
  C 1032.44 57.73 1030.56 58.90 1028.19 58.97
  L 1008.29 59.49
  C 1007.99 59.49 1007.73 59.26 1007.72 58.95
  L 1007.36 45.16
  Z"
/>
<path fill="#f61968" d="
  M 1289.68 44.19
  L 1307.65 44.71
  C 1308.83 44.74 1309.74 45.76 1309.64 46.93
  L 1308.97 54.80
  C 1308.88 55.84 1308.02 56.65 1306.98 56.68
  L 1290.04 57.11
  C 1288.92 57.14 1287.98 56.26 1287.94 55.14
  L 1287.57 46.33
  C 1287.52 45.14 1288.49 44.16 1289.68 44.19
  Z"
/>
<path fill="#f61968" d="
  M 1434.34 45.57
  C 1434.49 45.57 1434.62 45.70 1434.61 45.85
  L 1434.50 53.15
  C 1434.47 55.28 1433.96 57.00 1433.38 57.00
  L 1414.76 56.70
  C 1414.18 56.69 1413.73 54.96 1413.76 52.83
  L 1413.88 45.53
  C 1413.88 45.37 1414.01 45.25 1414.16 45.25
  L 1434.34 45.57
  Z"
/>
<path fill="#f61968" d="
  M 1377.97 45.82
  C 1378.36 45.82 1378.67 46.14 1378.66 46.53
  L 1378.59 53.08
  C 1378.57 55.35 1377.22 57.17 1375.57 57.15
  L 1359.41 56.99
  C 1357.77 56.97 1356.45 55.11 1356.47 52.84
  L 1356.54 46.29
  C 1356.55 45.91 1356.86 45.60 1357.25 45.60
  L 1377.97 45.82
  Z"
/>
<path fill="#f61968" d="
  M 1002.88 65.92
  C 1004.41 65.87 1005.86 65.12 1006.73 63.86
  C 1007.10 63.33 1007.28 63.38 1007.28 64.03
  L 1007.34 78.13
  C 1007.34 78.93 1006.68 79.59 1005.87 79.58
  L 987.56 79.44
  C 985.65 79.43 984.69 78.47 984.66 76.56
  L 984.54 66.46
  C 984.53 66.08 984.86 65.77 985.25 65.79
  C 990.76 66.06 996.64 66.11 1002.88 65.92
  Z"
/>
<path fill="#f61968" d="
  M 1056.13 88.51
  L 1054.79 89.79
  C 1054.44 90.12 1054.27 90.04 1054.26 89.57
  C 1054.22 87.84 1054.67 86.36 1055.62 85.12
  C 1056.82 83.55 1057.57 81.37 1056.15 79.71
  C 1055.96 79.48 1055.71 79.36 1055.40 79.34
  C 1049.12 78.95 1043.22 79.27 1037.70 80.29
  C 1036.53 80.51 1035.09 80.07 1035.05 78.64
  C 1034.92 74.07 1035.09 69.83 1035.57 65.91
  C 1035.65 65.25 1036.15 64.72 1036.81 64.59
  C 1040.68 63.87 1044.50 63.97 1048.29 64.88
  C 1051.49 65.65 1054.69 65.95 1057.98 65.81
  C 1058.70 65.78 1059.29 66.36 1059.26 67.08
  C 1059.17 69.27 1059.06 71.48 1058.94 73.71
  C 1058.83 75.86 1058.52 78.01 1057.99 80.15
  C 1057.52 82.06 1057.28 84.13 1057.25 86.38
  C 1057.24 86.75 1057.43 86.94 1057.80 86.93
  L 1080.81 86.67
  C 1081.16 86.66 1081.45 86.96 1081.44 87.31
  L 1081.00 98.85
  C 1080.97 99.57 1080.38 100.14 1079.66 100.14
  L 1059.94 100.01
  C 1058.33 100.00 1057.05 98.66 1057.10 97.05
  L 1057.39 89.08
  C 1057.43 87.86 1057.01 87.67 1056.13 88.51
  Z"
/>
<path fill="#f61968" d="
  M 910.88 80.65
  C 910.32 80.29 909.68 80.14 908.97 80.20
  C 908.62 80.23 908.37 80.40 908.24 80.73
  C 908.09 81.08 908.13 81.41 908.37 81.72
  C 908.76 82.22 908.64 82.44 908.01 82.38
  C 904.02 82.03 899.85 82.36 896.00 81.24
  C 895.61 81.13 895.44 80.88 895.49 80.48
  C 895.82 77.79 897.00 75.43 897.17 72.75
  C 897.34 70.10 897.27 67.65 896.94 65.40
  C 896.86 64.81 897.12 64.53 897.71 64.56
  C 905.20 64.96 912.89 65.00 920.77 64.68
  C 921.16 64.67 921.47 64.81 921.71 65.10
  C 922.85 66.48 923.47 67.98 923.56 69.61
  C 923.77 73.35 923.52 77.21 922.79 81.19
  C 922.70 81.68 922.27 82.04 921.77 82.05
  L 911.43 82.19
  C 911.04 82.20 910.87 82.01 910.91 81.62
  C 910.92 81.53 910.95 81.45 911.00 81.38
  C 911.23 81.09 911.19 80.85 910.88 80.65
  Z"
/>
<path fill="#f61968" d="
  M 1099.02 78.04
  C 1098.46 76.19 1098.32 74.41 1098.59 72.70
  C 1098.87 70.94 1098.58 69.21 1098.44 67.47
  C 1098.41 67.06 1098.57 66.75 1098.92 66.54
  C 1099.40 66.25 1099.95 66.25 1100.58 66.56
  C 1100.91 66.73 1101.26 66.81 1101.63 66.80
  L 1117.75 66.70
  C 1118.70 66.69 1119.15 67.17 1119.08 68.12
  L 1118.39 77.50
  C 1118.31 78.53 1117.77 78.92 1116.77 78.69
  C 1111.54 77.45 1106.17 77.54 1100.66 78.96
  C 1099.96 79.14 1099.23 78.74 1099.02 78.04
  Z"
/>
<path fill="#f61968" d="
  M 1158.8750 76.3574
  C 1158.86 76.94 1158.38 77.40 1157.8014 77.3833
  L 1140.6458 76.9940
  C 1140.07 76.98 1139.61 76.50 1139.6199 75.9205
  L 1139.8050 67.7626
  C 1139.82 67.18 1140.30 66.72 1140.8786 66.7367
  L 1158.0342 67.1260
  C 1158.61 67.14 1159.07 67.62 1159.0601 68.1995
  L 1158.8750 76.3574
  Z"
/>
<path fill="#f61968" d="
  M 1244.76 67.27
  L 1260.95 68.13
  C 1261.62 68.16 1262.12 68.74 1262.07 69.41
  L 1261.53 75.96
  C 1261.48 76.57 1260.97 77.04 1260.36 77.05
  L 1245.08 77.21
  C 1244.44 77.21 1243.91 76.71 1243.88 76.08
  L 1243.51 68.51
  C 1243.48 67.81 1244.06 67.23 1244.76 67.27
  Z"
/>
<path fill="#f61968" d="
  M 1195.32 67.59
  L 1210.34 68.04
  C 1211.27 68.07 1211.99 68.86 1211.94 69.79
  L 1211.58 75.70
  C 1211.53 76.57 1210.80 77.26 1209.93 77.25
  L 1195.83 77.15
  C 1194.98 77.14 1194.27 76.50 1194.20 75.65
  L 1193.63 69.38
  C 1193.54 68.40 1194.33 67.56 1195.32 67.59
  Z"
/>
<path fill="#f61968" d="
  M 1325.53 76.76
  L 1312.43 76.64
  C 1311.55 76.64 1310.83 75.94 1310.78 75.06
  L 1310.50 69.55
  C 1310.45 68.55 1311.29 67.73 1312.29 67.80
  L 1326.26 68.79
  C 1327.22 68.86 1327.93 69.72 1327.80 70.68
  L 1327.20 75.30
  C 1327.09 76.14 1326.37 76.76 1325.53 76.76
  Z"
/>
<path fill="#f61968" d="
  M 1361.33 68.56
  C 1361.70 68.58 1361.99 68.89 1361.98 69.27
  L 1361.80 73.52
  C 1361.71 75.62 1360.88 77.29 1359.93 77.25
  L 1347.86 76.74
  C 1346.92 76.70 1346.23 74.97 1346.31 72.87
  L 1346.49 68.62
  C 1346.51 68.24 1346.82 67.95 1347.20 67.97
  L 1361.33 68.56
  Z"
/>
<path fill="#f61968" d="
  M 1399.79 68.32
  L 1410.50 68.07
  C 1411.54 68.04 1412.35 68.95 1412.22 69.97
  L 1411.55 75.13
  C 1411.43 76.03 1410.63 76.68 1409.73 76.60
  L 1400.32 75.78
  C 1399.54 75.71 1398.92 75.12 1398.80 74.35
  L 1398.16 70.27
  C 1398.01 69.26 1398.77 68.35 1399.79 68.32
  Z"
/>
<path fill="#f61968" d="
  M 316.70 286.96
  C 316.35 286.91 316.06 287.11 315.82 287.56
  C 315.65 287.87 315.61 288.19 315.69 288.53
  C 316.35 291.35 317.02 294.14 317.70 296.90
  C 318.93 301.90 317.43 304.88 315.27 308.96
  C 314.77 309.89 314.81 311.02 315.37 311.91
  C 316.58 313.84 318.26 315.73 317.21 318.21
  C 315.98 321.13 314.68 323.66 315.48 327.00
  C 315.97 329.05 316.04 331.05 315.69 333.00
  C 314.84 337.74 313.65 342.48 312.12 347.22
  C 286.04 326.65 260.55 305.73 234.05 285.94
  C 231.79 284.25 229.96 283.33 228.56 283.17
  C 226.25 282.91 224.17 283.79 222.34 285.80
  C 194.02 316.93 164.92 348.77 135.05 381.31
  C 127.82 389.18 120.69 396.82 113.68 404.21
  C 111.51 406.50 109.77 409.50 108.47 413.21
  C 106.91 417.67 105.14 421.94 103.17 426.01
  C 96.91 438.91 82.68 447.66 68.16 443.93
  C 56.86 441.03 48.61 434.26 43.40 423.61
  C 41.66 420.05 40.49 416.46 40.45 412.44
  C 40.28 397.15 47.06 386.25 60.81 379.76
  C 64.09 378.21 67.09 376.62 69.80 374.99
  C 72.03 373.64 74.35 371.68 76.75 369.09
  C 106.36 337.13 137.86 303.00 171.27 266.70
  C 176.26 261.28 180.26 256.62 183.29 252.73
  C 187.30 247.55 183.03 243.96 179.35 240.97
  C 176.98 239.05 174.64 237.18 172.31 235.37
  C 152.79 220.15 134.63 205.83 117.84 192.40
  C 112.04 187.76 105.84 182.85 101.16 177.19
  C 92.23 166.42 87.58 154.05 87.19 140.10
  C 86.99 133.03 87.88 126.49 89.86 120.46
  C 95.07 104.61 104.42 91.75 117.89 81.87
  C 126.49 75.56 137.85 69.68 148.31 69.31
  C 151.96 69.18 155.48 69.16 158.89 69.24
  C 178.01 69.68 194.92 83.87 209.85 94.87
  C 231.07 110.52 252.23 126.52 273.34 142.89
  C 282.71 150.15 291.06 158.64 298.39 168.36
  C 304.93 177.02 309.91 187.41 303.07 197.36
  C 300.84 200.60 297.89 204.23 294.21 208.25
  C 285.87 217.35 278.57 225.42 272.30 232.45
  C 270.42 234.56 268.51 236.89 266.57 239.44
  C 264.99 241.52 264.81 243.58 266.02 245.63
  C 267.10 247.46 269.00 249.44 271.71 251.56
  C 286.74 263.33 301.73 275.13 316.70 286.96
  Z
  M 227.17 207.21
  L 238.62 193.17
  C 241.40 189.76 240.89 184.73 237.48 181.94
  L 173.03 129.39
  C 161.38 119.88 147.16 118.04 141.27 125.26
  L 141.07 125.51
  C 135.18 132.73 139.84 146.29 151.49 155.80
  L 215.94 208.35
  C 219.35 211.14 224.38 210.63 227.17 207.21
  Z"
/>
<path fill="#f61968" d="
  M 1445.89 69.56
  L 1455.08 69.52
  C 1456.51 69.52 1457.52 70.94 1457.03 72.30
  L 1456.32 74.26
  C 1456.01 75.11 1455.18 75.66 1454.28 75.62
  L 1446.75 75.26
  C 1446.06 75.23 1445.44 74.86 1445.08 74.27
  L 1444.13 72.70
  C 1443.29 71.32 1444.28 69.56 1445.89 69.56
  Z"
/>
<path fill="#f61968" d="
  M 957.17 84.30
  C 957.96 84.57 958.72 84.74 959.47 84.81
  C 963.24 85.18 967.17 85.40 971.27 85.47
  C 971.93 85.48 972.45 86.02 972.44 86.68
  L 972.16 98.50
  C 972.13 99.53 971.27 100.33 970.25 100.26
  L 964.56 99.93
  C 964.20 99.90 963.86 99.98 963.54 100.17
  L 961.65 101.27
  C 961.33 101.46 960.99 101.54 960.62 101.51
  C 955.77 101.10 951.29 100.97 947.19 101.14
  C 946.36 101.17 945.66 100.54 945.62 99.72
  C 945.35 94.95 945.32 90.14 945.53 85.29
  C 945.57 84.43 946.02 84.01 946.89 84.04
  C 947.48 84.05 948.07 84.01 948.67 83.92
  C 952.01 83.39 954.84 83.52 957.17 84.30
  Z"
/>
<path fill="#f61968" d="
  M 1189.8544 98.0591
  C 1189.84 98.91 1189.14 99.59 1188.2878 99.5720
  L 1169.6106 99.2460
  C 1168.76 99.23 1168.08 98.53 1168.0977 97.6794
  L 1168.2656 88.0609
  C 1168.28 87.21 1168.98 86.53 1169.8322 86.5480
  L 1188.5094 86.8740
  C 1189.36 86.89 1190.04 87.59 1190.0223 88.4406
  L 1189.8544 98.0591
  Z"
/>
<path fill="#f61968" d="
  M 1298.88 87.96
  C 1299.03 87.96 1299.15 88.08 1299.15 88.23
  L 1299.06 96.24
  C 1299.04 97.88 1298.23 99.21 1297.24 99.20
  L 1280.10 99.02
  C 1279.11 99.01 1278.33 97.67 1278.34 96.02
  L 1278.43 88.01
  C 1278.43 87.86 1278.55 87.74 1278.70 87.74
  L 1298.88 87.96
  Z"
/>
<path fill="#f61968" d="
  M 1378.25 87.59
  L 1394.68 88.00
  C 1395.20 88.01 1395.60 88.46 1395.56 88.97
  L 1394.78 97.86
  C 1394.73 98.34 1394.32 98.70 1393.84 98.69
  L 1378.40 98.06
  C 1377.93 98.04 1377.55 97.66 1377.54 97.19
  L 1377.32 88.52
  C 1377.31 88.00 1377.73 87.58 1378.25 87.59
  Z"
/>
<path fill="#f61968" d="
  M 909.60 120.32
  C 907.60 120.32 905.97 118.69 905.97 116.69
  L 905.97 107.07
  C 905.97 105.05 908.31 103.42 911.19 103.42
  L 928.19 103.42
  C 931.07 103.42 933.41 105.05 933.41 107.07
  L 933.41 116.69
  C 933.41 118.69 931.78 120.32 929.78 120.32
  L 909.60 120.32
  Z
  M 914.29 105.68
  C 913.73 105.82 913.36 106.07 913.19 106.43
  C 913.00 106.81 913.12 106.96 913.53 106.87
  C 914.09 106.76 914.60 106.47 915.05 106.02
  C 916.10 106.26 916.98 106.18 917.69 105.79
  C 918.04 105.60 918.02 105.46 917.63 105.37
  C 916.48 105.11 915.37 105.21 914.29 105.68
  Z"
/>
<path fill="#d71515" d="
  M 915.05 106.02
  C 915.10 105.75 914.85 105.63 914.29 105.68
  C 915.37 105.21 916.48 105.11 917.63 105.37
  C 918.02 105.46 918.04 105.60 917.69 105.79
  C 916.98 106.18 916.10 106.26 915.05 106.02
  Z"
/>
<path fill="#f61968" d="
  M 804.83 106.02
  L 829.51 105.87
  C 830.06 105.86 830.50 106.30 830.49 106.85
  L 830.35 120.00
  C 830.34 120.52 829.92 120.95 829.40 120.96
  L 805.54 121.35
  C 805.01 121.36 804.58 120.96 804.55 120.43
  L 803.87 107.04
  C 803.84 106.49 804.28 106.03 804.83 106.02
  Z"
/>
<path fill="#f61968" d="
  M 1018.22 106.65
  L 1038.67 106.74
  C 1039.51 106.75 1040.17 107.46 1040.11 108.30
  L 1039.43 117.88
  C 1039.38 118.62 1038.77 119.21 1038.03 119.22
  L 1018.61 119.74
  C 1017.81 119.76 1017.15 119.14 1017.12 118.34
  L 1016.76 108.15
  C 1016.73 107.32 1017.40 106.64 1018.22 106.65
  Z"
/>
<path fill="#f61968" d="
  M 1133.9713 117.2540
  C 1133.95 118.40 1133.01 119.31 1131.8690 119.2912
  L 1116.3510 119.0474
  C 1115.21 119.03 1114.30 118.09 1114.3137 116.9451
  L 1114.4287 109.6260
  C 1114.45 108.48 1115.39 107.57 1116.5310 107.5888
  L 1132.0490 107.8326
  C 1133.19 107.85 1134.10 108.79 1134.0863 109.9349
  L 1133.9713 117.2540
  Z"
/>
<path fill="#f61968" d="
  M 1228.86 108.47
  C 1229.16 108.46 1229.41 108.71 1229.41 109.01
  L 1229.46 114.93
  C 1229.48 116.84 1228.18 118.39 1226.56 118.41
  L 1214.24 118.51
  C 1212.63 118.53 1211.30 116.99 1211.28 115.09
  L 1211.23 109.17
  C 1211.23 108.87 1211.47 108.62 1211.78 108.61
  L 1228.86 108.47
  Z"
/>
<path fill="#f61968" d="
  M 1309.21 108.94
  L 1322.02 109.18
  C 1322.82 109.20 1323.44 109.89 1323.36 110.70
  L 1322.91 115.38
  C 1322.84 116.07 1322.28 116.60 1321.59 116.63
  L 1309.84 117.10
  C 1309.12 117.13 1308.50 116.59 1308.42 115.87
  L 1307.81 110.47
  C 1307.72 109.64 1308.38 108.92 1309.21 108.94
  Z"
/>
<path fill="#f61968" d="
  M 1421.38 116.41
  L 1412.49 115.75
  C 1411.92 115.71 1411.44 115.32 1411.28 114.78
  L 1410.40 111.91
  C 1410.13 111.01 1410.83 110.10 1411.77 110.14
  L 1422.77 110.60
  C 1423.72 110.64 1424.34 111.60 1423.99 112.48
  L 1422.75 115.55
  C 1422.53 116.10 1421.98 116.45 1421.38 116.41
  Z"
/>
<path fill="#fc415e" d="
  M 397.54 128.66
  C 399.49 131.53 399.82 134.47 398.54 137.48
  C 397.33 140.32 396.58 145.16 396.29 151.99
  C 395.99 159.11 397.01 166.14 396.99 173.33
  C 396.97 178.45 396.92 183.55 396.85 188.63
  C 396.80 192.66 398.96 194.08 400.60 197.11
  C 400.87 197.62 401.11 198.24 401.31 198.95
  C 401.50 199.64 401.91 200.18 402.52 200.56
  C 392.14 211.37 385.16 218.54 381.58 222.07
  C 379.20 224.43 378.05 227.60 380.75 230.30
  C 383.08 232.63 385.19 234.59 387.07 236.17
  C 390.71 239.23 395.81 243.37 402.38 248.60
  C 396.50 258.15 394.24 268.46 395.59 279.51
  C 395.64 279.88 395.76 280.21 395.96 280.51
  C 397.12 282.30 398.03 283.66 397.09 285.93
  C 395.67 289.40 394.43 292.83 393.38 296.22
  C 392.59 298.76 393.61 301.21 394.21 303.65
  C 394.32 304.09 394.26 304.51 394.03 304.90
  C 393.75 305.38 393.75 305.89 394.04 306.43
  C 374.06 290.92 354.49 274.91 335.34 258.42
  C 330.87 254.58 326.62 250.19 322.57 245.25
  C 317.89 239.54 312.46 229.52 314.81 222.29
  C 315.93 218.83 317.70 215.40 320.12 211.99
  C 323.77 206.84 327.78 201.73 332.13 196.67
  C 342.16 184.98 352.18 174.07 362.18 163.93
  C 374.01 151.93 385.80 140.17 397.54 128.66
  Z"
/>
<path fill="#fd4f59" d="
  M 402.38 248.60
  C 419.65 262.08 440.17 278.04 458.39 294.31
  C 464.62 299.88 469.17 304.74 472.02 308.89
  C 477.79 317.29 481.28 325.89 482.47 334.70
  C 483.10 339.30 482.99 344.63 482.15 350.69
  C 479.06 373.05 459.81 393.18 441.25 403.15
  C 432.44 407.89 419.35 411.90 408.73 410.51
  C 402.94 409.75 397.03 408.56 390.99 406.95
  C 390.30 406.76 389.62 406.53 388.94 406.25
  C 388.25 405.97 387.52 405.71 386.75 405.48
  C 387.70 404.37 388.60 403.52 389.45 402.94
  C 391.85 401.30 392.11 399.45 392.00 396.46
  C 391.43 381.19 393.50 366.12 398.21 351.24
  C 402.97 355.15 407.06 358.54 412.95 359.66
  C 415.49 360.15 417.81 359.86 419.92 358.80
  C 423.14 357.19 425.74 354.82 427.73 351.71
  C 431.24 346.23 429.70 338.80 425.51 333.88
  C 422.28 330.09 418.58 326.48 414.43 323.06
  C 407.65 317.49 400.85 311.95 394.04 306.43
  C 393.75 305.89 393.75 305.38 394.03 304.90
  C 394.26 304.51 394.32 304.09 394.21 303.65
  C 393.61 301.21 392.59 298.76 393.38 296.22
  C 394.43 292.83 395.67 289.40 397.09 285.93
  C 398.03 283.66 397.12 282.30 395.96 280.51
  C 395.76 280.21 395.64 279.88 395.59 279.51
  C 394.24 268.46 396.50 258.15 402.38 248.60
  Z"
/>
<path fill="#d71515" d="
  M 543.55 286.05
  C 542.68 285.76 541.74 285.59 540.75 285.54
  C 526.81 284.93 512.39 284.67 497.50 284.75
  C 496.05 284.76 494.82 284.31 493.81 283.39
  C 493.56 283.16 493.47 282.89 493.56 282.56
  C 495.75 273.94 498.32 265.76 501.27 258.01
  C 501.66 256.98 502.41 256.46 503.50 256.46
  C 561.89 256.13 611.81 256.12 653.25 256.43
  C 654.19 256.44 654.85 256.60 655.23 256.93
  C 655.73 257.36 655.94 258.05 655.76 258.69
  C 653.67 266.28 650.89 273.91 647.40 281.57
  C 646.40 283.76 643.89 284.76 641.65 284.75
  C 627.17 284.67 610.37 284.91 591.26 285.46
  C 589.06 285.53 587.56 286.58 586.77 288.61
  C 585.53 291.80 584.37 295.02 583.29 298.27
  C 577.47 315.74 571.11 334.98 564.22 355.99
  C 559.25 371.16 554.34 384.66 549.49 396.50
  C 548.66 398.54 547.03 399.58 544.60 399.63
  C 534.07 399.82 524.19 399.78 514.96 399.51
  C 513.83 399.48 512.71 399.26 511.62 398.86
  C 510.54 398.46 510.16 397.71 510.49 396.61
  C 515.01 381.38 520.92 366.36 525.19 350.78
  C 528.60 338.30 532.27 326.15 536.89 314.03
  C 539.68 306.69 542.04 300.02 543.95 294.03
  C 544.66 291.80 544.74 289.39 544.21 286.80
  C 544.14 286.45 543.89 286.16 543.55 286.05
  Z"
/>
<path fill="#d71515" d="
  M 841.57 297.97
  C 840.79 297.70 840.08 298.36 839.44 299.95
  C 835.18 310.48 831.59 321.24 828.67 332.21
  C 828.18 334.02 828.27 335.14 828.92 335.55
  C 823.29 349.90 817.80 364.36 812.44 378.95
  C 809.90 385.86 805.57 389.63 798.67 393.00
  C 794.22 395.17 789.83 397.21 785.52 399.12
  C 784.87 399.41 784.16 399.56 783.45 399.56
  C 742.32 399.57 699.98 399.57 656.42 399.57
  C 654.98 399.57 653.58 399.23 652.22 398.56
  C 647.11 396.03 640.06 392.28 640.11 385.66
  C 640.14 381.18 640.66 377.15 641.65 373.58
  C 645.97 358.06 651.82 341.80 657.41 325.96
  C 660.67 316.74 662.76 307.25 665.40 297.85
  C 666.95 292.32 669.21 286.53 672.18 280.49
  C 676.62 271.43 683.31 264.45 691.51 259.89
  C 698.54 255.99 709.26 256.32 717.50 256.29
  C 755.48 256.14 792.52 255.99 829.11 256.40
  C 832.42 256.44 834.98 256.89 836.77 257.76
  C 844.06 261.29 849.04 268.79 847.54 277.26
  C 846.85 281.16 844.86 288.06 841.57 297.97
  Z
  M 798.08 289.62
  C 771.24 289.17 743.28 289.18 714.20 289.65
  C 712.78 289.67 711.28 289.55 710.32 290.64
  C 708.90 292.27 707.88 294.16 707.26 296.31
  C 702.13 314.16 696.26 331.28 689.63 347.69
  C 688.22 351.18 686.99 354.69 685.93 358.23
  C 684.90 361.69 684.59 367.22 689.91 367.40
  C 716.95 368.29 743.85 368.25 770.61 367.27
  C 773.54 367.16 777.61 365.30 778.70 362.37
  C 787.43 338.80 794.18 319.54 798.97 304.57
  C 800.06 301.16 800.80 297.62 801.20 293.95
  C 801.51 291.10 800.47 289.66 798.08 289.62
  Z"
/>
<path fill="#d71515" d="
  M 936.20 347.13
  C 925.73 344.98 915.21 344.31 904.64 345.11
  C 904.57 345.12 903.97 345.13 902.84 345.16
  C 901.19 345.20 900.42 345.72 900.51 346.72
  C 896.64 346.63 893.14 346.91 890.01 347.56
  C 888.94 347.79 888.21 348.47 887.83 349.61
  C 882.36 365.83 877.26 381.57 871.44 396.94
  C 870.85 398.51 869.36 399.56 867.68 399.59
  C 857.07 399.76 846.81 399.81 836.91 399.72
  C 835.61 399.71 834.36 399.42 833.17 398.85
  C 832.43 398.50 832.07 397.65 832.34 396.88
  C 834.97 389.25 837.06 381.86 838.62 374.69
  C 839.65 369.93 841.37 364.40 843.77 358.11
  C 851.46 337.92 858.15 319.28 863.82 302.18
  C 865.68 296.57 867.50 290.35 869.28 283.52
  C 871.15 276.30 873.65 268.92 876.77 261.39
  C 877.72 259.12 879.38 256.49 882.17 256.41
  C 894.44 256.03 905.48 256.06 915.31 256.51
  C 917.28 256.60 918.11 258.20 917.48 259.95
  C 913.89 269.81 910.81 279.93 908.25 290.32
  C 907.12 294.91 905.31 299.48 902.84 304.05
  C 900.71 307.98 900.37 312.80 906.29 313.30
  C 918.82 314.34 932.30 314.33 946.72 313.27
  C 949.17 313.09 953.42 310.25 955.67 308.63
  C 970.48 297.92 985.69 286.70 1001.28 274.97
  C 1010.32 268.18 1018.63 262.29 1026.22 257.31
  C 1027.38 256.55 1028.81 256.17 1030.50 256.16
  C 1043.41 256.10 1058.23 256.17 1074.97 256.36
  C 1076.16 256.37 1076.38 256.85 1075.65 257.78
  C 1075.35 258.16 1075.00 258.51 1074.59 258.83
  C 1069.42 262.88 1064.32 266.79 1059.31 270.56
  C 1050.57 277.13 1042.39 284.82 1033.38 290.69
  C 1024.17 296.70 1016.15 303.06 1008.11 310.23
  C 1005.19 312.82 1001.46 315.40 996.91 317.95
  C 993.78 319.71 991.03 321.86 988.64 324.39
  C 986.06 327.14 987.18 330.68 988.87 333.55
  C 995.48 344.78 1002.94 355.71 1009.52 366.71
  C 1013.69 373.68 1018.31 380.95 1023.38 388.54
  C 1025.11 391.11 1026.78 393.94 1028.40 397.01
  C 1028.70 397.57 1028.52 398.26 1028.00 398.61
  C 1026.99 399.30 1025.81 399.65 1024.47 399.67
  C 1010.81 399.89 997.85 399.80 985.60 399.39
  C 983.39 399.32 981.11 399.08 978.74 398.68
  C 977.13 398.41 975.88 397.57 974.99 396.16
  C 963.36 377.82 953.14 362.39 944.34 349.87
  C 943.84 349.16 943.24 348.52 942.53 347.96
  C 942.27 347.75 941.97 347.64 941.64 347.61
  L 936.20 347.13
  Z"
/>
<path fill="#d71515" d="
  M 1103.37 365.28
  C 1102.40 365.67 1102.01 366.35 1102.20 367.30
  C 1102.27 367.66 1102.49 367.86 1102.85 367.89
  C 1103.16 367.92 1103.35 367.72 1103.40 367.30
  C 1103.61 369.27 1104.64 370.27 1106.50 370.30
  C 1138.41 370.82 1170.33 371.12 1202.25 371.21
  C 1205.68 371.22 1209.38 371.33 1213.37 371.55
  C 1213.88 371.58 1214.24 372.06 1214.12 372.55
  L 1211.63 382.78
  C 1209.73 384.22 1208.63 386.37 1208.32 389.24
  C 1208.29 389.44 1208.21 389.56 1208.08 389.61
  C 1207.87 389.68 1207.76 389.82 1207.76 390.04
  C 1207.74 391.03 1207.49 392.02 1207.00 393.00
  C 1206.83 393.35 1206.91 393.63 1207.25 393.82
  L 1207.95 394.22
  C 1205.57 400.65 1199.60 399.49 1194.25 399.54
  C 1154.55 399.90 1108.88 399.94 1057.25 399.65
  C 1055.82 399.64 1054.46 399.38 1053.19 398.88
  C 1052.45 398.59 1052.07 397.78 1052.31 397.03
  C 1053.09 394.61 1053.62 392.05 1054.44 389.70
  C 1062.11 367.65 1069.33 345.50 1076.10 323.23
  C 1079.51 312.05 1083.39 301.59 1087.39 290.93
  C 1091.30 280.52 1094.34 269.45 1098.40 259.36
  C 1098.75 258.47 1099.31 257.67 1100.07 256.96
  C 1100.32 256.73 1100.61 256.59 1100.94 256.56
  C 1102.21 256.41 1103.49 256.33 1104.76 256.32
  C 1156.30 256.02 1203.79 255.96 1251.07 257.35
  C 1252.50 257.39 1253.03 258.10 1252.66 259.47
  C 1250.79 266.51 1248.48 273.56 1245.72 280.61
  C 1244.66 283.33 1242.54 284.70 1239.37 284.71
  C 1203.69 284.82 1167.59 284.80 1130.90 285.67
  C 1129.93 285.69 1129.06 286.29 1128.70 287.19
  C 1126.08 293.61 1124.10 299.79 1122.76 305.74
  C 1121.64 310.71 1123.57 313.22 1128.55 313.27
  C 1139.25 313.40 1150.08 314.12 1160.68 314.19
  C 1165.87 314.22 1170.74 314.33 1175.27 314.50
  C 1176.01 314.53 1176.76 314.61 1177.51 314.74
  C 1178.26 314.88 1178.73 315.61 1178.55 316.35
  C 1176.32 325.24 1173.62 333.86 1170.43 342.21
  C 1169.54 344.54 1167.74 345.71 1165.02 345.72
  C 1152.05 345.79 1138.97 345.81 1125.80 345.77
  C 1120.51 345.75 1115.30 346.22 1110.21 346.63
  C 1109.00 346.72 1108.16 347.33 1107.69 348.45
  C 1105.46 353.86 1104.02 359.47 1103.37 365.28
  Z"
/>
<path fill="#d71515" d="
  M 1300.16 316.49
  C 1298.90 316.84 1298.32 318.31 1297.89 319.40
  C 1293.11 331.55 1289.47 341.69 1286.97 349.83
  C 1282.27 365.14 1277.42 381.68 1270.82 396.67
  C 1269.98 398.58 1268.22 399.56 1265.54 399.63
  C 1256.05 399.85 1246.06 399.88 1235.58 399.72
  C 1233.94 399.69 1232.53 399.35 1231.36 398.70
  C 1230.63 398.30 1230.30 397.42 1230.59 396.64
  C 1236.63 380.10 1242.34 364.03 1247.73 348.44
  C 1252.14 335.67 1255.81 322.09 1260.38 309.10
  C 1265.17 295.49 1270.27 280.64 1275.69 264.53
  C 1276.52 262.08 1278.53 256.51 1281.81 256.45
  C 1294.71 256.18 1307.33 256.18 1319.68 256.46
  C 1323.18 256.54 1325.59 257.74 1327.65 260.75
  C 1331.54 266.42 1335.19 271.94 1338.60 277.31
  C 1349.17 293.94 1360.08 311.00 1371.33 328.49
  C 1373.36 331.66 1375.78 335.05 1378.57 338.68
  C 1379.18 339.49 1379.91 339.77 1380.74 339.54
  C 1382.42 339.07 1384.37 338.20 1385.07 336.54
  C 1386.24 333.76 1387.38 330.80 1388.47 327.65
  C 1395.63 307.06 1402.25 287.56 1408.34 269.16
  C 1409.45 265.78 1411.05 262.38 1412.43 259.08
  C 1413.84 255.69 1416.22 256.26 1419.09 256.23
  C 1429.35 256.12 1439.42 256.17 1449.31 256.37
  C 1450.45 256.40 1451.26 257.49 1450.95 258.59
  C 1448.90 265.86 1446.57 273.60 1443.94 281.79
  C 1433.45 314.47 1423.28 345.06 1413.44 373.55
  C 1410.69 381.53 1407.65 389.34 1404.34 396.97
  C 1403.60 398.67 1402.03 399.54 1399.64 399.59
  C 1388.01 399.82 1375.80 399.88 1363.00 399.77
  C 1358.30 399.74 1356.43 396.02 1353.71 391.80
  C 1338.54 368.25 1323.54 345.00 1308.71 322.05
  C 1307.86 320.72 1306.76 319.28 1305.42 317.72
  C 1303.96 316.02 1302.18 315.92 1300.16 316.49
  Z"
/>
<path fill="#fc415e" d="
  M 316.70 286.96
  L 398.21 351.24
  C 393.50 366.12 391.43 381.19 392.00 396.46
  C 392.11 399.45 391.85 401.30 389.45 402.94
  C 388.60 403.52 387.70 404.37 386.75 405.48
  L 312.12 347.22
  C 313.65 342.48 314.84 337.74 315.69 333.00
  C 316.04 331.05 315.97 329.05 315.48 327.00
  C 314.68 323.66 315.98 321.13 317.21 318.21
  C 318.26 315.73 316.58 313.84 315.37 311.91
  C 314.81 311.02 314.77 309.89 315.27 308.96
  C 317.43 304.88 318.93 301.90 317.70 296.90
  C 317.02 294.14 316.35 291.35 315.69 288.53
  C 315.61 288.19 315.65 287.87 315.82 287.56
  C 316.06 287.11 316.35 286.91 316.70 286.96
  Z"
/>
<path fill="#fd4f59" d="
  M 841.57 297.97
  C 838.06 310.74 833.85 323.27 828.92 335.55
  C 828.27 335.14 828.18 334.02 828.67 332.21
  C 831.59 321.24 835.18 310.48 839.44 299.95
  C 840.08 298.36 840.79 297.70 841.57 297.97
  Z"
/>
<path fill="#fd4f59" d="
  M 936.20 347.13
  L 900.51 346.72
  C 900.42 345.72 901.19 345.20 902.84 345.16
  C 903.97 345.13 904.57 345.12 904.64 345.11
  C 915.21 344.31 925.73 344.98 936.20 347.13
  Z"
/>
<path fill="#fd4f59" d="
  M 1103.37 365.28
  L 1103.40 367.30
  C 1103.35 367.72 1103.16 367.92 1102.85 367.89
  C 1102.49 367.86 1102.27 367.66 1102.20 367.30
  C 1102.01 366.35 1102.40 365.67 1103.37 365.28
  Z"
/>
<path fill="#fd4f59" d="
  M 1211.63 382.78
  L 1207.95 394.22
  L 1207.25 393.82
  C 1206.91 393.63 1206.83 393.35 1207.00 393.00
  C 1207.49 392.02 1207.74 391.03 1207.76 390.04
  C 1207.76 389.82 1207.87 389.68 1208.08 389.61
  C 1208.21 389.56 1208.29 389.44 1208.32 389.24
  C 1208.63 386.37 1209.73 384.22 1211.63 382.78
  Z"
/>
</svg>
